<?xml version="1.0" encoding="utf-8"?>
<!-- Generator: Adobe Illustrator 21.1.0, SVG Export Plug-In . SVG Version: 6.00 Build 0)  -->
<svg version="1.1" id="Layer_1" xmlns="http://www.w3.org/2000/svg" xmlns:xlink="http://www.w3.org/1999/xlink" x="0px" y="0px"
	 viewBox="0 0 80 80" style="enable-background:new 0 0 80 80;" xml:space="preserve">
<style type="text/css">
	.st0{fill:#133155;}
	.st1{fill:#448BCA;}
	.st2{fill:#FFFFFF;}
</style>
<g>
	<g>
		<g>
			<path class="st0" d="M77.6,12.2H27.5L0,24.2v53.4C0,79,1.1,80,2.4,80v0h75.3v0c1.3,0,2.4-1.1,2.4-2.4h0V14.5
				C80,13.2,78.9,12.2,77.6,12.2"/>
			<path class="st1" d="M77.6,0H27.5L0,12.1v46.1l80,0l0,7.4V2.4C80,1.1,78.9,0,77.6,0"/>
			<polygon class="st2" points="28.3,0.8 0.8,12.9 10.5,20.6 			"/>
			<rect x="7.1" y="34.7" class="st2" width="5.1" height="19.4"/>
			<polygon class="st2" points="31.1,39.1 25.3,39.1 25.3,54.1 20.2,54.1 20.2,39.1 14.4,39.1 14.4,34.7 31.1,34.7 			"/>
			<path class="st2" d="M37.2,47.6c0.1,2.3,1.5,3,3.7,3c1.5,0,3.1-0.5,3.1-2c0-1.7-2.8-2-5.6-2.8c-2.8-0.8-5.7-2-5.7-5.6
				c0-4.2,4.3-5.9,7.9-5.9c3.9,0,7.7,1.9,7.8,6.3h-5.1c0.1-1.8-1.6-2.3-3.1-2.3c-1.1,0-2.4,0.4-2.4,1.7c0,1.5,2.8,1.8,5.6,2.6
				c2.8,0.8,5.6,2.1,5.6,5.6c0,4.9-4.2,6.5-8.5,6.5c-4.5,0-8.4-2-8.4-6.9H37.2z"/>
			<polygon class="st2" points="51.4,34.7 58.9,34.7 62.2,47.6 62.3,47.6 65.6,34.7 73.1,34.7 73.1,54.1 68.3,54.1 68.3,39.4 
				68.3,39.4 64.2,54.1 60.3,54.1 56.3,39.4 56.2,39.4 56.2,54.1 51.4,54.1 			"/>
			<polygon class="st2" points="10,66 10,73.3 9.1,73.3 9.1,66 7.1,66 7.1,65.2 12,65.2 12,66 			"/>
			<path class="st2" d="M25,73.4c-2.1,0-3.1-1.9-3.1-4.1c0-2.3,1-4.1,3.1-4.1c2.1,0,3.1,1.9,3.1,4.1C28.1,71.5,27,73.4,25,73.4
				 M25,66c-1.4,0-2.1,1.4-2.1,3.3s0.7,3.3,2.1,3.3c1.4,0,2.1-1.4,2.1-3.3S26.4,66,25,66"/>
			<path class="st2" d="M40.4,73.4c-2.1,0-3.1-1.9-3.1-4.1c0-2.3,1-4.1,3.1-4.1c2.1,0,3.1,1.9,3.1,4.1
				C43.5,71.5,42.5,73.4,40.4,73.4 M40.4,66c-1.4,0-2.1,1.4-2.1,3.3s0.7,3.3,2.1,3.3c1.4,0,2.1-1.4,2.1-3.3S41.8,66,40.4,66"/>
			<polygon class="st2" points="53.8,73.3 53.8,65.2 54.8,65.2 54.8,72.5 57.8,72.5 57.8,73.3 			"/>
			<path class="st2" d="M70.9,73.4c-0.7,0-1.5-0.2-1.9-0.4l0.3-0.8c0.4,0.2,1,0.4,1.6,0.4c1,0,1.7-0.5,1.7-1.4
				c0-0.8-0.7-1.2-1.5-1.5c-1-0.4-2.1-1-2.1-2.3c0-1.3,1-2.2,2.5-2.2c0.7,0,1.4,0.2,1.8,0.4l-0.3,0.8c-0.3-0.2-0.9-0.4-1.4-0.4
				c-0.9,0-1.5,0.5-1.5,1.3c0,0.8,0.8,1.2,1.6,1.5c0.9,0.4,2,1,2,2.3C73.6,72.5,72.5,73.4,70.9,73.4"/>
		</g>
	</g>
</g>
</svg>
