<svg width="64" height="64" viewBox="0 0 64 64" fill="none" xmlns="http://www.w3.org/2000/svg">
  <circle cx="32" cy="32" r="31" fill="#08112e" stroke="black" stroke-width="1"/>
  <g transform="translate(13, 9) scale(2)">
    <path d="M0 9.16255C0.927931 7.75995 1.99881 6.55722 3.32251 5.51698C2.42986 5.32747 1.53463 5.15066 0.641792 4.96254C1.78915 4.12875 2.97184 3.58129 4.33652 3.20161C3.48088 2.22678 2.948 1.26771 2.65607 0.000165939C4.01917 0.50413 5.4395 0.713073 6.87161 0.803434C8.66229 0.916439 10.4876 0.914932 12.237 1.35609C13.4563 1.66355 14.6557 2.16374 15.6724 2.91157C16.1886 3.29147 16.659 3.74148 17.0247 4.26998C17.4183 4.83926 17.6161 5.48924 17.868 6.12677C17.8759 6.1468 17.8906 6.14681 17.8981 6.15988C18.0469 6.41978 18.1807 6.6845 18.3166 6.95039C18.3186 6.9462 18.3209 6.94191 18.3231 6.93792C19.2009 9.20863 19.0482 9.65136 17.6224 11.5778C17.4712 10.9227 17.5001 10.1461 17.0515 9.61435C16.2112 8.61837 15.1164 8.05138 14.0457 7.37267C13.7644 7.19454 13.1373 7.34395 12.9659 7.15366C12.5564 6.69886 13.9267 6.4126 14.1801 6.29162C14.92 6.21024 15.6406 6.13026 16.3709 6.02992C16.2899 5.82526 16.2009 5.6246 16.118 5.42054C16.1051 5.38861 16.1203 5.35211 16.1145 5.31891C16.0553 5.49115 15.9933 5.67027 15.9324 5.83742C15.361 4.96474 14.8758 4.16705 13.8468 3.79213C12.6262 3.34741 11.2974 3.25197 10.0405 2.92822C10.0229 2.9756 9.99756 3.0093 9.98549 3.05449C10.51 3.40904 11.1261 3.75852 11.6328 4.1061C12.0252 4.3753 12.018 4.59173 12.0409 5.0167C11.5872 5.11743 11.1426 5.22574 10.6931 5.33236C10.6988 5.38713 10.7032 5.44196 10.7086 5.49692C11.4921 5.67765 12.2168 5.93317 12.9163 6.32545C12.6376 6.45987 12.2296 6.50447 11.975 6.66015C10.2582 7.71107 8.95971 8.78942 8.12699 10.6467C7.80706 11.3603 7.90558 12.1931 7.79229 12.9547C7.76108 13.1642 7.78242 13.3884 7.76447 13.599C7.71648 13.6199 7.66514 13.6369 7.61556 13.6558C7.09942 12.501 6.81328 11.3517 6.67784 10.0955C5.87596 10.5102 5.18318 11.0183 4.52323 11.6332C4.88218 10.5845 5.38227 9.63309 5.99134 8.70854C4.35347 9.50056 2.88854 10.4765 1.49822 11.6479C2.29802 10.4867 3.15534 9.37798 4.01967 8.26442C2.6413 8.40315 1.31492 8.73137 0 9.16255Z" fill="#EAEFF6"/>
    <path d="M7.65704 14.4833C8.07981 12.3832 9.14392 10.3283 10.7546 9.03254C10.8933 8.92086 11.0377 8.81661 11.1821 8.7123C11.8376 8.23866 12.4683 7.7993 13.2081 7.4622C14.5658 6.84344 16.344 6.69024 17.756 6.29378C16.7937 3.57437 13.0517 2.90944 10.7681 2.74068C8.15631 2.54768 6.53003 2.30582 4.10603 2.15703C4.97563 2.89697 5.68674 3.68499 6.4946 4.44488C5.53874 4.61663 4.70854 4.91612 3.87473 5.41291C4.84926 5.63054 5.55568 6.02341 6.24626 6.74489C4.02902 7.39477 2.11897 8.4798 0.296906 9.89039C1.63755 9.35141 3.00434 8.974 4.42798 8.73245C3.43032 9.9578 2.51871 11.2161 1.68851 12.561C2.47263 12.1285 3.2793 11.7588 4.11529 11.4385C3.64824 13.1513 3.68216 14.6584 4.0403 16.3914C4.39686 15.1219 4.85984 13.9152 5.56875 12.7994C5.97829 16.4011 6.72351 19.9134 8.90584 22.9024C8.34352 20.9818 7.59121 19.0748 7.46794 17.0576C7.41717 16.2254 7.4824 15.3505 7.65704 14.4833Z" fill="url(#paint0_linear)"/>
    <path d="M13.5281 4.78014C13.2336 4.59841 12.9535 4.4491 12.6554 4.25373C12.5193 4.16447 12.298 3.93527 12.1234 3.95351C11.8637 3.98066 12.0001 4.17943 12.0547 4.31766C12.2105 4.71331 12.3558 5.09321 12.5624 5.45815C12.6603 5.63088 12.7468 5.80152 12.9303 5.89459C13.2647 6.06423 13.5974 6.06863 13.9625 6.00709C14.2186 5.96381 14.453 5.84004 14.7014 5.77062C14.0304 5.66918 13.709 5.44486 13.5281 4.78014Z" fill="white"/>
    <path d="M14.4496 5.33674C14.2956 5.238 14.1413 5.13996 13.9848 5.04531C13.918 5.00503 13.852 4.96223 13.7827 4.92673C13.7132 4.89101 13.6534 4.81882 13.5716 4.82091C13.4898 4.82301 13.4988 4.89032 13.5068 4.96065C13.5147 5.03086 13.5029 5.11523 13.532 5.19022C13.5809 5.31589 13.6142 5.43938 13.7257 5.53431C13.8372 5.62946 13.97 5.70527 14.1229 5.72911C14.4226 5.77569 14.7128 5.73629 15.0084 5.67277C14.9285 5.64165 14.8521 5.60553 14.7805 5.55816C14.6699 5.48474 14.5612 5.40836 14.4496 5.33674Z" fill="#272424"/>
    <defs>
      <linearGradient id="paint0_linear" x1="12.5716" y1="0.555781" x2="2.51432" y2="20.3909" gradientUnits="userSpaceOnUse">
        <stop stop-color="#08112E"/>
        <stop offset="0.615534" stop-color="#99B1FF"/>
      </linearGradient>
    </defs>
  </g>
</svg>
